 
http://www.imdb.com/title/tt0903624/


General
Complete name                    : The.Hobbit.2012.DVDSCR.XVID-Happyviking.mp4
Format                           : MPEG-4
Format profile                   : Base Media
Codec ID                         : isom
File size                        : 2.05 GiB
Duration                         : 2h 49mn
Overall bit rate                 : 1 731 Kbps
Writing application              : Lavf52.94.0

Video
ID                               : 1
Format                           : AVC
Format/Info                      : Advanced Video Codec
Format profile                   : Main@L3.0
Format settings, CABAC           : Yes
Format settings, ReFrames        : 2 frames
Codec ID                         : avc1
Codec ID/Info                    : Advanced Video Coding
Duration                         : 2h 49mn
Bit rate mode                    : Variable
Bit rate                         : 1 554 Kbps
Width                            : 640 pixels
Height                           : 272 pixels
Display aspect ratio             : 2.35:1
Frame rate mode                  : Constant
Frame rate                       : 29.970 fps
Color space                      : YUV
Chroma subsampling               : 4:2:0
Bit depth                        : 8 bits
Scan type                        : Progressive
Bits/(Pixel*Frame)               : 0.298
Stream size                      : 1.85 GiB (90%)
Writing library                  : x264 core 112 r1834 a51816a


Audio
ID                               : 2
Format                           : AAC
Format/Info                      : Advanced Audio Codec
Format profile                   : LC
Codec ID                         : 40
Duration                         : 2h 49mn
Bit rate mode                    : Variable
Bit rate                         : 165 Kbps
Channel(s)                       : 2 channels
Channel positions                : Front: L R
Sampling rate                    : 48.0 KHz
Compression mode                 : Lossy
Stream size                      : 200 MiB (10%)

Screen:
 
http://www.shotpix.com/images/34528070191250481905.png 
http://www.shotpix.com/images/03169195132641327549.png 
http://www.shotpix.com/images/54946884089085644334.png 
http://www.shotpix.com/images/75916138720981896309.png
